<svg width="60" height="68" viewBox="0 0 60 68" fill="none" xmlns="http://www.w3.org/2000/svg">
<g opacity="0.9">
<path opacity="0.9" d="M30.2306 6.52264C16.6447 6.52264 12.3545 13.9098 12.3545 13.9098C10.6066 15.8744 13.7051 22.4756 13.7051 22.4756C14.1818 22.0041 17.8365 19.175 23.7952 19.175C26.3376 19.175 29.3566 19.6465 32.6935 21.0611C43.9753 25.7762 45.5643 42.515 35.3948 50.8451L35.2359 51.0809C35.3153 52.1025 35.6331 54.3029 38.7317 54.3029C39.4467 54.3029 40.3207 54.1457 41.433 53.8314C45.2465 52.7312 52.4764 49.1162 56.0517 41.9649C56.2106 41.7291 56.3695 41.4148 56.6078 40.9433C60.3419 32.5346 57.2434 22.5542 57.2434 22.5542C57.2434 22.397 57.1639 22.2399 57.1639 22.0827C56.5284 20.511 55.6544 19.0178 54.701 17.6033C54.6216 17.4461 54.3038 17.0532 54.2243 16.896C50.4902 11.8665 45.0082 8.33012 37.3016 7.07274C34.6797 6.67981 32.2963 6.52264 30.2306 6.52264Z" stroke="white" stroke-miterlimit="10"/>
<path opacity="0.9" d="M57.0845 22.0041C57.0845 22.1613 57.1639 22.3184 57.1639 22.4756C57.1639 22.4756 60.2625 32.456 56.5284 40.8647C56.29 41.3362 56.1311 41.6505 55.9722 41.8863C52.397 48.959 45.4849 52.6526 41.6713 53.7528C35.8715 55.4031 35.4742 51.9453 35.4742 50.7665C32.4552 53.1241 28.4032 54.7744 24.2719 54.7744C21.0144 54.7744 17.9159 53.9099 15.2941 52.3382C15.2941 52.3382 6.55463 66.9552 20.6172 67.5053C20.6966 67.5053 20.8555 67.5053 20.935 67.5053C21.0939 67.5053 21.1733 67.5053 21.3322 67.5053H21.4117H21.4911C22.2062 67.5053 22.8418 67.5053 23.5568 67.5053C34.0441 67.0338 44.0548 61.6899 51.0463 53.9885C51.1258 53.9099 51.2052 53.8314 51.2847 53.7528C51.3641 53.6742 51.4436 53.5956 51.523 53.4384C53.986 50.6093 55.9722 47.3087 57.4817 43.6152C60.3419 36.6211 60.0241 28.6839 57.0845 22.0041Z" fill="white"/>
<path opacity="0.9" d="M25.3841 1.57171C26.9731 0.550104 28.006 0 28.006 0C-13.3077 16.5031 1.31095 36.8568 8.38195 44.7154C7.42856 42.5936 6.47516 40.3146 6.31627 37.8784C6.07792 31.8273 9.097 26.0905 13.5462 22.397C10.3682 12.338 20.2994 4.71515 25.3841 1.57171Z" fill="white"/>
<path opacity="0.9" d="M26.4964 17.7604C23.5568 17.7604 20.7761 18.4677 18.3926 19.8037C21.7295 18.8606 26.5759 18.5463 32.614 21.061C40.6384 24.3617 43.5781 33.6348 41.274 41.8863C42.3863 39.6073 43.3397 37.1712 43.3397 34.4206C43.3397 25.2261 35.792 17.7604 26.4964 17.7604Z" fill="white"/>
</g>
</svg>
